<svg width="655" height="601" viewBox="0 0 655 601" fill="none" xmlns="http://www.w3.org/2000/svg">
<path opacity="0.24" d="M407.396 12.5239C390.539 2.67827 370.47 -2.84315 351.554 1.49894C338.919 4.44726 327.559 11.4518 316.495 18.3848L217.026 80.8001C194.218 95.095 170.502 110.337 156.873 133.906C149.23 147.111 145.269 162.156 138.969 176.076C125.794 205.291 102.322 229.807 95.2024 261.148C85.3776 304.158 109.529 348.705 142.319 377.527C175.109 406.349 215.717 423.503 253.167 445.428C276.62 459.169 299.027 474.893 323.458 486.74C346.024 497.808 370.182 505.084 395.006 508.29C412.631 510.452 430.99 510.273 447.515 503.644C488.158 487.33 505.749 438.691 538.888 409.583C556.059 394.484 577.122 384.96 596.301 372.631C615.479 360.302 633.75 343.702 639.84 321.366C647.641 292.776 633.261 262.274 613.559 240.474C593.857 218.675 568.885 202.504 548.538 181.329C523.618 155.42 513.287 122.363 493.219 93.4153C472.243 63.4138 438.528 30.7142 407.396 12.5239Z" fill="#57B7EB"/>
<path d="M120.581 223.772L118.894 230.19L253.312 265.523L254.999 259.105L120.581 223.772Z" fill="#57B7EB"/>
<path d="M388.202 342.631L382.279 348.07L465.981 439.234L471.905 433.795L388.202 342.631Z" fill="#57B7EB"/>
<path d="M384.61 229.395L390.345 235.031L477.092 146.76L471.357 141.123L384.61 229.395Z" fill="#57B7EB"/>
<path d="M377.227 360.194L377.271 361.194C367.407 369.61 355.774 375.83 343.204 379.41C330.633 382.99 317.434 383.841 304.549 381.904C291.664 379.966 279.411 375.287 268.663 368.201C257.916 361.115 248.939 351.796 242.374 340.909C235.809 330.022 231.817 317.836 230.683 305.221C229.55 292.605 231.303 279.871 235.817 267.927C240.33 255.984 247.494 245.124 256.796 236.125C266.099 227.125 277.31 220.207 289.631 215.865C284.332 221.916 279.656 228.454 275.671 235.382C274.904 236.741 274.104 238.146 273.367 239.593C272.766 240.736 272.17 241.905 271.608 243.107C271.193 243.991 270.772 244.916 270.366 245.852C268.86 249.28 267.577 252.795 266.523 256.375V256.375C264.482 263.109 263.441 270.081 263.43 277.079C263.502 287.729 266.334 298.161 271.666 307.413C274.345 312.117 277.518 316.537 281.136 320.602C286.645 326.861 292.729 332.62 299.315 337.808C339.041 369.038 377.227 360.194 377.227 360.194Z" fill="url(#paint0_linear)"/>
<path fill-rule="evenodd" clip-rule="evenodd" d="M334.161 364.774C379.537 364.774 416.321 328.56 416.321 283.887C416.321 239.214 379.537 203 334.161 203C288.785 203 252 239.214 252 283.887C252 328.56 288.785 364.774 334.161 364.774ZM334.161 357.131C375.316 357.131 408.679 324.338 408.679 283.887C408.679 243.435 375.316 210.643 334.161 210.643C293.006 210.643 259.643 243.435 259.643 283.887C259.643 324.338 293.006 357.131 334.161 357.131Z" fill="#57B7EB"/>
<path d="M457.337 482.217H516.968V526.004H457.337V482.217Z" fill="#AAE1F9"/>
<path d="M450.948 526.004H523.357V529.984C523.357 532.096 522.459 534.121 520.861 535.614C519.264 537.107 517.097 537.946 514.838 537.946H459.467C457.208 537.946 455.041 537.107 453.443 535.614C451.846 534.121 450.948 532.096 450.948 529.984V526.004Z" fill="#F9E109"/>
<path d="M465.856 498.139V482.217H457.337V526.004H516.968V518.042H487.153C481.504 518.042 476.087 515.945 472.094 512.213C468.1 508.48 465.856 503.418 465.856 498.139V498.139Z" fill="#57B7EB"/>
<path d="M463.726 531.975C462.032 531.975 460.407 531.346 459.209 530.226C458.01 529.106 457.337 527.587 457.337 526.004H450.948V529.984C450.948 532.096 451.846 534.121 453.443 535.614C455.041 537.107 457.208 537.946 459.467 537.946H514.838C516.722 537.94 518.55 537.351 520.038 536.27C521.525 535.19 522.587 533.679 523.058 531.975H463.726Z" fill="#FCBC04"/>
<path d="M570.209 484.207H544.653C542.301 484.207 540.394 485.989 540.394 488.188V512.071C540.394 514.27 542.301 516.052 544.653 516.052H570.209C572.561 516.052 574.468 514.27 574.468 512.071V488.188C574.468 485.989 572.561 484.207 570.209 484.207Z" fill="#C4F236"/>
<path d="M557.431 506.1C560.959 506.1 563.82 503.427 563.82 500.129C563.82 496.832 560.959 494.158 557.431 494.158C553.902 494.158 551.042 496.832 551.042 500.129C551.042 503.427 553.902 506.1 557.431 506.1Z" fill="#57B7EB"/>
<path d="M546.783 494.158V484.207H544.653C543.523 484.207 542.44 484.626 541.641 485.373C540.842 486.119 540.394 487.132 540.394 488.188V512.071C540.394 513.127 540.842 514.14 541.641 514.886C542.44 515.633 543.523 516.052 544.653 516.052H570.209C571.338 516.052 572.422 515.633 573.221 514.886C574.019 514.14 574.468 513.127 574.468 512.071V510.081H563.82C559.301 510.081 554.968 508.404 551.773 505.417C548.578 502.431 546.783 498.381 546.783 494.158Z" fill="#A1D51C"/>
<path d="M559.561 500.129C560.737 500.129 561.69 499.238 561.69 498.139C561.69 497.04 560.737 496.149 559.561 496.149C558.384 496.149 557.431 497.04 557.431 498.139C557.431 499.238 558.384 500.129 559.561 500.129Z" fill="#AAE1F9"/>
<path d="M450.948 440.42H476.504V472.265H450.948V440.42Z" fill="#C4F236"/>
<path d="M502.06 452.362C511.469 452.362 519.097 445.233 519.097 436.439C519.097 427.645 511.469 420.516 502.06 420.516C492.651 420.516 485.023 427.645 485.023 436.439C485.023 445.233 492.651 452.362 502.06 452.362Z" fill="#F89C8D"/>
<path d="M497.801 442.41V430.468L510.579 436.439L497.801 442.41Z" fill="#AAE1F9"/>
<path d="M508.449 446.391C503.93 446.391 499.597 444.713 496.402 441.727C493.207 438.741 491.412 434.691 491.412 430.468C491.406 427.709 492.178 424.998 493.648 422.606C491.404 423.838 489.492 425.534 488.058 427.564C486.625 429.594 485.708 431.904 485.378 434.316C485.048 436.729 485.314 439.18 486.155 441.482C486.996 443.783 488.39 445.874 490.231 447.594C492.071 449.314 494.308 450.617 496.771 451.403C499.234 452.189 501.856 452.438 504.438 452.129C507.019 451.821 509.491 450.964 511.663 449.624C513.835 448.284 515.649 446.497 516.968 444.4C514.367 445.757 511.427 446.444 508.449 446.391Z" fill="#F8664F"/>
<path d="M570.209 422.507H544.653C542.301 422.507 540.394 424.289 540.394 426.487V450.371C540.394 452.57 542.301 454.352 544.653 454.352H570.209C572.561 454.352 574.468 452.57 574.468 450.371V426.487C574.468 424.289 572.561 422.507 570.209 422.507Z" fill="#AAE1F9"/>
<path d="M546.783 432.458V422.507H544.653C543.523 422.507 542.44 422.926 541.641 423.673C540.842 424.419 540.394 425.432 540.394 426.487V450.371C540.394 451.427 540.842 452.44 541.641 453.186C542.44 453.933 543.523 454.352 544.653 454.352H570.209C571.338 454.352 572.422 453.933 573.221 453.186C574.019 452.44 574.468 451.427 574.468 450.371V448.381H563.82C559.301 448.381 554.968 446.703 551.773 443.717C548.578 440.731 546.783 436.681 546.783 432.458V432.458Z" fill="#57B7EB"/>
<path d="M457.337 454.352V440.42H450.948V472.265H476.504V466.294H470.115C466.726 466.294 463.476 465.036 461.08 462.796C458.684 460.557 457.337 457.519 457.337 454.352Z" fill="#A1D51C"/>
<path d="M485.155 502.449L492.532 498.468L501.051 512.257C501.616 513.171 501.769 514.258 501.476 515.278C501.184 516.297 500.47 517.167 499.492 517.695C498.514 518.223 497.351 518.366 496.26 518.092C495.169 517.819 494.239 517.152 493.674 516.238L485.155 502.449Z" fill="#F8664F"/>
<path d="M497.929 507.195L492.541 498.458L485.151 502.438L490.198 510.599L493.882 508.608L497.929 507.195Z" fill="#CC5144"/>
<path d="M530.278 491.89L493.882 504.628L483.234 487.391L513.241 464.304L530.278 491.89Z" fill="#C4F236"/>
<path d="M474.022 492.37L483.243 487.394L493.891 504.63L484.67 509.606C483.202 510.398 481.459 510.613 479.822 510.203C478.185 509.793 476.79 508.792 475.942 507.421L471.683 500.526C470.836 499.155 470.606 497.525 471.045 495.995C471.483 494.466 472.554 493.162 474.022 492.37V492.37Z" fill="#F89C8D"/>
<path d="M467.979 502.513L471.668 500.522L475.927 507.417L472.239 509.407C471.26 509.935 470.098 510.078 469.007 509.805C467.915 509.532 466.985 508.864 466.42 507.95C465.856 507.036 465.702 505.949 465.995 504.93C466.287 503.91 467.001 503.041 467.979 502.513Z" fill="#CC5144"/>
<path d="M496.353 498.537C496.132 498.614 495.918 498.707 495.714 498.816L491.646 501.005L493.882 504.628L530.278 491.889L527.616 487.59L496.353 498.537Z" fill="#A1D51C"/>
<path d="M490.475 501.642C488.78 502.548 486.851 503.002 484.899 502.952C482.948 502.903 481.048 502.353 479.408 501.363C477.768 500.373 476.451 498.98 475.601 497.337C474.751 495.695 474.4 493.865 474.588 492.049L474.013 492.367C473.285 492.759 472.647 493.281 472.136 493.903C471.624 494.525 471.249 495.236 471.031 495.994C470.814 496.751 470.758 497.542 470.868 498.32C470.977 499.098 471.25 499.848 471.67 500.527L475.929 507.414C476.348 508.094 476.907 508.69 477.573 509.168C478.238 509.646 478.999 509.997 479.809 510.2C480.62 510.403 481.466 510.455 482.299 510.353C483.131 510.251 483.934 509.996 484.661 509.603L493.882 504.628L491.646 501.005L490.475 501.642Z" fill="#F8664F"/>
<path d="M523.357 524.013H519.097V504.508C519.097 503.98 518.873 503.474 518.473 503.101C518.074 502.728 517.532 502.518 516.968 502.518C516.403 502.518 515.861 502.728 515.462 503.101C515.062 503.474 514.838 503.98 514.838 504.508V524.013H459.467V484.207H477.186C477.751 484.207 478.292 483.997 478.692 483.624C479.091 483.251 479.315 482.744 479.315 482.217C479.315 481.689 479.091 481.182 478.692 480.809C478.292 480.436 477.751 480.226 477.186 480.226H457.337C456.773 480.226 456.231 480.436 455.831 480.809C455.432 481.182 455.208 481.689 455.208 482.217V524.013H450.948C450.384 524.013 449.842 524.223 449.443 524.596C449.043 524.97 448.819 525.476 448.819 526.004V529.984C448.819 532.624 449.941 535.155 451.938 537.021C453.935 538.888 456.643 539.936 459.467 539.936H514.838C517.662 539.936 520.37 538.888 522.367 537.021C524.364 535.155 525.486 532.624 525.486 529.984V526.004C525.486 525.476 525.262 524.97 524.862 524.596C524.463 524.223 523.921 524.013 523.357 524.013ZM521.227 529.984C521.227 531.568 520.554 533.087 519.356 534.207C518.157 535.326 516.532 535.955 514.838 535.955H510.579V533.965C510.579 533.437 510.354 532.931 509.955 532.558C509.556 532.184 509.014 531.975 508.449 531.975C507.884 531.975 507.342 532.184 506.943 532.558C506.544 532.931 506.319 533.437 506.319 533.965V535.955H467.986V533.965C467.986 533.437 467.761 532.931 467.362 532.558C466.962 532.184 466.421 531.975 465.856 531.975C465.291 531.975 464.749 532.184 464.35 532.558C463.951 532.931 463.726 533.437 463.726 533.965V535.955H459.467C457.773 535.955 456.148 535.326 454.949 534.207C453.751 533.087 453.078 531.568 453.078 529.984V527.994H521.227V529.984Z" fill="#39519D"/>
<path d="M559.561 432.458H563.82C564.385 432.458 564.926 432.249 565.326 431.875C565.725 431.502 565.95 430.996 565.95 430.468C565.95 429.94 565.725 429.434 565.326 429.061C564.926 428.687 564.385 428.478 563.82 428.478H559.561C557.866 428.478 556.241 429.107 555.043 430.227C553.845 431.346 553.172 432.865 553.172 434.449V436.439H551.042C550.477 436.439 549.935 436.649 549.536 437.022C549.137 437.395 548.912 437.901 548.912 438.429C548.912 438.957 549.137 439.463 549.536 439.837C549.935 440.21 550.477 440.42 551.042 440.42H553.172V446.391C553.172 446.918 553.396 447.425 553.795 447.798C554.195 448.171 554.736 448.381 555.301 448.381C555.866 448.381 556.408 448.171 556.807 447.798C557.207 447.425 557.431 446.918 557.431 446.391V440.42H559.561C560.125 440.42 560.667 440.21 561.066 439.837C561.466 439.463 561.69 438.957 561.69 438.429C561.69 437.901 561.466 437.395 561.066 437.022C560.667 436.649 560.125 436.439 559.561 436.439H557.431V434.449C557.431 433.921 557.655 433.415 558.055 433.041C558.454 432.668 558.996 432.458 559.561 432.458Z" fill="#39519D"/>
<path d="M570.209 420.516H544.653C542.959 420.516 541.334 421.145 540.135 422.265C538.937 423.385 538.264 424.904 538.264 426.487V430.468C538.264 430.996 538.488 431.502 538.888 431.875C539.287 432.249 539.829 432.458 540.394 432.458C540.959 432.458 541.5 432.249 541.9 431.875C542.299 431.502 542.523 430.996 542.523 430.468V426.487C542.523 425.959 542.748 425.453 543.147 425.08C543.547 424.707 544.088 424.497 544.653 424.497H570.209C570.774 424.497 571.315 424.707 571.715 425.08C572.114 425.453 572.339 425.959 572.339 426.487V450.371C572.339 450.899 572.114 451.405 571.715 451.779C571.315 452.152 570.774 452.362 570.209 452.362H544.653C544.088 452.362 543.547 452.152 543.147 451.779C542.748 451.405 542.523 450.899 542.523 450.371V438.429C542.523 437.901 542.299 437.395 541.9 437.022C541.5 436.649 540.959 436.439 540.394 436.439C539.829 436.439 539.287 436.649 538.888 437.022C538.488 437.395 538.264 437.901 538.264 438.429V450.371C538.264 451.955 538.937 453.474 540.135 454.593C541.334 455.713 542.959 456.342 544.653 456.342H570.209C571.903 456.342 573.528 455.713 574.727 454.593C575.925 453.474 576.598 451.955 576.598 450.371V426.487C576.598 424.904 575.925 423.385 574.727 422.265C573.528 421.145 571.903 420.516 570.209 420.516V420.516Z" fill="#39519D"/>
<path d="M548.912 500.129C548.912 501.704 549.412 503.243 550.348 504.553C551.284 505.862 552.614 506.882 554.171 507.485C555.728 508.087 557.44 508.245 559.093 507.938C560.745 507.631 562.263 506.872 563.455 505.759C564.646 504.646 565.457 503.227 565.786 501.683C566.115 500.138 565.946 498.538 565.301 497.083C564.656 495.628 563.565 494.385 562.164 493.51C560.763 492.635 559.116 492.168 557.431 492.168C555.172 492.168 553.005 493.007 551.407 494.5C549.81 495.993 548.912 498.018 548.912 500.129ZM561.69 500.129C561.69 500.917 561.44 501.686 560.972 502.341C560.504 502.996 559.839 503.506 559.061 503.807C558.283 504.108 557.426 504.187 556.6 504.034C555.774 503.88 555.015 503.501 554.419 502.944C553.823 502.388 553.418 501.678 553.253 500.906C553.089 500.134 553.173 499.334 553.496 498.606C553.818 497.879 554.364 497.257 555.065 496.82C555.765 496.382 556.589 496.149 557.431 496.149C558.561 496.149 559.644 496.568 560.443 497.315C561.242 498.061 561.69 499.074 561.69 500.129Z" fill="#39519D"/>
<path d="M570.209 482.217H544.653C542.959 482.217 541.334 482.846 540.135 483.965C538.937 485.085 538.264 486.604 538.264 488.188V512.071C538.264 513.655 538.937 515.174 540.135 516.294C541.334 517.413 542.959 518.042 544.653 518.042H570.209C571.903 518.042 573.528 517.413 574.727 516.294C575.925 515.174 576.598 513.655 576.598 512.071V508.091C576.598 507.563 576.373 507.057 575.974 506.683C575.575 506.31 575.033 506.1 574.468 506.1C573.903 506.1 573.362 506.31 572.962 506.683C572.563 507.057 572.339 507.563 572.339 508.091V512.071C572.339 512.599 572.114 513.106 571.715 513.479C571.315 513.852 570.774 514.062 570.209 514.062H544.653C544.088 514.062 543.547 513.852 543.147 513.479C542.748 513.106 542.523 512.599 542.523 512.071V488.188C542.523 487.66 542.748 487.153 543.147 486.78C543.547 486.407 544.088 486.197 544.653 486.197H570.209C570.774 486.197 571.315 486.407 571.715 486.78C572.114 487.153 572.339 487.66 572.339 488.188V500.129C572.339 500.657 572.563 501.164 572.962 501.537C573.362 501.91 573.903 502.12 574.468 502.12C575.033 502.12 575.575 501.91 575.974 501.537C576.373 501.164 576.598 500.657 576.598 500.129V488.188C576.598 486.604 575.925 485.085 574.727 483.965C573.528 482.846 571.903 482.217 570.209 482.217V482.217Z" fill="#39519D"/>
<path d="M496.672 444.102C497.011 444.298 497.402 444.401 497.801 444.4C498.134 444.398 498.462 444.323 498.759 444.181L511.537 438.21C511.886 438.043 512.179 437.79 512.383 437.477C512.587 437.165 512.696 436.805 512.696 436.439C512.696 436.073 512.587 435.713 512.383 435.401C512.179 435.088 511.886 434.835 511.537 434.668L498.759 428.697C498.435 428.544 498.074 428.471 497.712 428.485C497.349 428.5 496.996 428.6 496.687 428.778C496.377 428.955 496.122 429.204 495.944 429.5C495.766 429.795 495.672 430.129 495.671 430.468V442.41C495.67 442.748 495.762 443.081 495.937 443.377C496.112 443.673 496.365 443.922 496.672 444.102V444.102ZM499.93 433.692L505.808 436.439L499.93 439.186V433.692Z" fill="#39519D"/>
<path d="M502.06 454.352C505.851 454.352 509.557 453.301 512.709 451.333C515.861 449.365 518.317 446.567 519.768 443.294C521.219 440.021 521.598 436.419 520.859 432.944C520.119 429.47 518.294 426.278 515.613 423.773C512.933 421.267 509.517 419.561 505.799 418.87C502.081 418.179 498.227 418.534 494.725 419.89C491.223 421.245 488.229 423.541 486.123 426.487C484.017 429.433 482.893 432.896 482.893 436.439C482.893 441.19 484.913 445.746 488.507 449.105C492.102 452.465 496.977 454.352 502.06 454.352V454.352ZM502.06 422.507C505.008 422.507 507.891 423.324 510.342 424.855C512.794 426.386 514.705 428.562 515.833 431.107C516.961 433.653 517.256 436.454 516.681 439.157C516.106 441.86 514.686 444.342 512.601 446.291C510.516 448.239 507.86 449.566 504.968 450.104C502.077 450.641 499.079 450.365 496.355 449.311C493.631 448.256 491.303 446.471 489.665 444.179C488.027 441.888 487.152 439.195 487.152 436.439C487.152 432.744 488.723 429.2 491.519 426.587C494.315 423.975 498.106 422.507 502.06 422.507V422.507Z" fill="#39519D"/>
<path d="M523.357 462.313C523.687 462.313 524.013 462.241 524.309 462.103C524.605 461.965 524.862 461.764 525.06 461.517L531.449 453.556C531.788 453.134 531.934 452.603 531.854 452.08C531.774 451.558 531.475 451.086 531.023 450.769C530.571 450.453 530.003 450.317 529.444 450.391C528.885 450.466 528.381 450.745 528.042 451.167L521.653 459.129C521.314 459.551 521.168 460.082 521.248 460.604C521.328 461.127 521.627 461.598 522.079 461.915C522.447 462.174 522.896 462.313 523.357 462.313Z" fill="#39519D"/>
<path d="M528.042 469.478C528.24 469.726 528.497 469.926 528.793 470.064C529.089 470.203 529.415 470.275 529.745 470.275C530.206 470.275 530.655 470.135 531.023 469.876L539.542 463.906C539.994 463.589 540.292 463.117 540.372 462.595C540.452 462.072 540.307 461.541 539.968 461.119C539.629 460.697 539.124 460.418 538.565 460.343C538.006 460.268 537.438 460.404 536.986 460.721L528.468 466.692C528.016 467.009 527.717 467.48 527.637 468.003C527.557 468.525 527.703 469.056 528.042 469.478V469.478Z" fill="#39519D"/>
<path d="M548.912 473.857C548.862 473.593 548.755 473.342 548.597 473.117C548.44 472.893 548.236 472.701 547.997 472.552C547.759 472.404 547.49 472.302 547.208 472.252C546.927 472.203 546.637 472.207 546.357 472.265L535.709 474.255C535.429 474.281 535.157 474.359 534.91 474.483C534.662 474.607 534.443 474.776 534.265 474.979C533.906 475.389 533.735 475.917 533.792 476.445C533.848 476.972 534.127 477.458 534.566 477.794C535.005 478.13 535.57 478.289 536.134 478.236H536.56L547.209 476.246C547.491 476.198 547.76 476.098 548 475.951C548.24 475.804 548.446 475.614 548.605 475.39C548.764 475.167 548.873 474.917 548.926 474.653C548.979 474.39 548.974 474.119 548.912 473.857Z" fill="#39519D"/>
<path d="M450.948 474.255H476.504C477.069 474.255 477.611 474.046 478.01 473.672C478.41 473.299 478.634 472.793 478.634 472.265V440.42C478.634 439.892 478.41 439.386 478.01 439.012C477.611 438.639 477.069 438.429 476.504 438.429H450.948C450.384 438.429 449.842 438.639 449.443 439.012C449.043 439.386 448.819 439.892 448.819 440.42V472.265C448.819 472.793 449.043 473.299 449.443 473.672C449.842 474.046 450.384 474.255 450.948 474.255ZM453.078 442.41H474.375V470.275H453.078V442.41Z" fill="#39519D"/>
<path d="M467.986 446.391H463.726C463.162 446.391 462.62 446.6 462.22 446.974C461.821 447.347 461.597 447.853 461.597 448.381C461.597 448.909 461.821 449.415 462.22 449.788C462.62 450.162 463.162 450.371 463.726 450.371H467.986C468.55 450.371 469.092 450.162 469.492 449.788C469.891 449.415 470.115 448.909 470.115 448.381C470.115 447.853 469.891 447.347 469.492 446.974C469.092 446.6 468.55 446.391 467.986 446.391Z" fill="#39519D"/>
<path d="M467.986 454.352H459.467C458.902 454.352 458.361 454.562 457.961 454.935C457.562 455.308 457.337 455.814 457.337 456.342C457.337 456.87 457.562 457.376 457.961 457.75C458.361 458.123 458.902 458.333 459.467 458.333H467.986C468.55 458.333 469.092 458.123 469.492 457.75C469.891 457.376 470.115 456.87 470.115 456.342C470.115 455.814 469.891 455.308 469.492 454.935C469.092 454.562 468.55 454.352 467.986 454.352Z" fill="#39519D"/>
<path d="M467.986 462.313H459.467C458.902 462.313 458.361 462.523 457.961 462.896C457.562 463.269 457.337 463.776 457.337 464.304C457.337 464.831 457.562 465.338 457.961 465.711C458.361 466.084 458.902 466.294 459.467 466.294H467.986C468.55 466.294 469.092 466.084 469.492 465.711C469.891 465.338 470.115 464.831 470.115 464.304C470.115 463.776 469.891 463.269 469.492 462.896C469.092 462.523 468.55 462.313 467.986 462.313Z" fill="#39519D"/>
<path d="M521.482 473.658C521.343 473.431 521.156 473.231 520.934 473.071C520.712 472.911 520.458 472.794 520.187 472.725C519.916 472.657 519.633 472.639 519.355 472.673C519.077 472.706 518.808 472.791 518.565 472.922C518.322 473.052 518.108 473.227 517.937 473.434C517.766 473.642 517.64 473.879 517.567 474.133C517.493 474.386 517.474 474.65 517.51 474.91C517.546 475.17 517.637 475.421 517.777 475.648L527.169 490.835L493.094 502.777C493.094 502.777 493.094 502.777 492.945 502.777H492.775L487.238 505.762L483.553 507.752C483.068 508.014 482.533 508.185 481.977 508.253C481.422 508.321 480.857 508.286 480.316 508.15C479.229 507.876 478.303 507.211 477.739 506.299L473.48 499.413C472.979 498.512 472.865 497.466 473.162 496.489C473.459 495.512 474.144 494.679 475.077 494.158L482.446 490.178L487.77 498.796C487.958 499.1 488.228 499.352 488.553 499.526C488.879 499.701 489.248 499.793 489.623 499.791C489.997 499.793 490.366 499.702 490.691 499.527C491.016 499.353 491.286 499.102 491.474 498.799C491.661 498.497 491.761 498.153 491.761 497.803C491.761 497.453 491.663 497.109 491.476 496.806L485.981 487.929L512.708 467.329L513.581 468.742C513.721 468.969 513.908 469.169 514.13 469.329C514.352 469.489 514.606 469.607 514.877 469.675C515.148 469.743 515.431 469.761 515.709 469.727C515.987 469.694 516.256 469.609 516.499 469.478C516.742 469.348 516.956 469.174 517.127 468.966C517.298 468.758 517.424 468.521 517.497 468.268C517.57 468.014 517.59 467.75 517.553 467.49C517.517 467.23 517.427 466.979 517.287 466.752L515.157 463.308C515.001 463.059 514.789 462.844 514.535 462.679C514.282 462.514 513.992 462.403 513.688 462.353C513.382 462.299 513.067 462.309 512.765 462.381C512.463 462.453 512.182 462.586 511.942 462.771L482.127 485.739L473.054 490.636C471.426 491.522 470.158 492.888 469.449 494.519C468.74 496.15 468.63 497.956 469.136 499.652L467.006 500.786C465.909 501.375 465.023 502.255 464.462 503.315C463.9 504.375 463.688 505.567 463.853 506.739C464.017 507.912 464.55 509.012 465.384 509.901C466.219 510.791 467.317 511.428 468.539 511.733C469.081 511.867 469.64 511.934 470.2 511.932C471.321 511.928 472.421 511.654 473.395 511.136L475.525 510.001C476.548 510.989 477.834 511.704 479.251 512.071C479.979 512.262 480.732 512.355 481.488 512.35C482.985 512.353 484.455 511.982 485.747 511.275L487.6 510.28L491.859 517.187C492.705 518.554 494.098 519.553 495.73 519.963C497.363 520.373 499.103 520.162 500.569 519.376C501.297 518.984 501.934 518.462 502.446 517.84C502.958 517.218 503.333 516.507 503.55 515.75C503.768 514.992 503.824 514.201 503.714 513.423C503.604 512.645 503.332 511.895 502.912 511.216L499.036 504.906L530.981 493.701C531.27 493.599 531.533 493.439 531.75 493.233C531.967 493.027 532.133 492.779 532.237 492.507C532.341 492.237 532.381 491.95 532.355 491.665C532.33 491.38 532.239 491.104 532.088 490.855L521.482 473.658ZM471.18 507.673C470.938 507.804 470.67 507.889 470.392 507.923C470.114 507.957 469.832 507.94 469.562 507.872C469.016 507.739 468.549 507.41 468.262 506.956C468.122 506.73 468.031 506.479 467.995 506.22C467.958 505.96 467.977 505.696 468.05 505.444C468.122 505.189 468.248 504.951 468.42 504.743C468.592 504.535 468.806 504.36 469.05 504.23L470.903 503.234L473.033 506.678L471.18 507.673ZM499.206 513.246C499.347 513.472 499.437 513.723 499.474 513.982C499.511 514.242 499.492 514.506 499.419 514.758C499.267 515.264 498.908 515.694 498.418 515.953C497.932 516.214 497.355 516.285 496.813 516.151C496.27 516.017 495.806 515.688 495.522 515.236L491.263 508.33L494.798 506.439H494.968L499.206 513.246Z" fill="#39519D"/>
<path d="M599.108 81.7029H479.808C477.368 81.7029 475.39 83.6812 475.39 86.1215V170.073C475.39 172.514 477.368 174.492 479.808 174.492H599.108C601.549 174.492 603.527 172.514 603.527 170.073V86.1215C603.527 83.6812 601.549 81.7029 599.108 81.7029Z" fill="#AAE1F9"/>
<path d="M497.482 117.051V81.7029H479.808C478.636 81.7029 477.513 82.1685 476.684 82.9971C475.855 83.8257 475.39 84.9496 475.39 86.1215V170.073C475.39 171.245 475.855 172.369 476.684 173.198C477.513 174.026 478.636 174.492 479.808 174.492H599.108C600.28 174.492 601.404 174.026 602.233 173.198C603.061 172.369 603.527 171.245 603.527 170.073V156.818H537.249C526.702 156.818 516.587 152.628 509.13 145.17C501.672 137.713 497.482 127.598 497.482 117.051V117.051Z" fill="#57B7EB"/>
<path d="M554.923 174.492H523.993L515.156 192.166H563.76L554.923 174.492Z" fill="#FCBC04"/>
<path d="M499.692 192.166H579.225C580.397 192.166 581.521 192.632 582.349 193.46C583.178 194.289 583.644 195.413 583.644 196.585V201.003H495.273V196.585C495.273 195.413 495.739 194.289 496.567 193.46C497.396 192.632 498.52 192.166 499.692 192.166Z" fill="#FCBC04"/>
<path d="M508.529 192.166H579.225C580.397 192.166 581.521 192.632 582.349 193.46C583.178 194.289 583.644 195.413 583.644 196.585H512.947C511.775 196.585 510.651 196.119 509.823 195.29C508.994 194.462 508.529 193.338 508.529 192.166Z" fill="#F9E109"/>
<path d="M554.923 174.492H523.993L515.156 192.166L554.923 174.492Z" fill="#E59730"/>
<path d="M484.227 90.54H554.923V139.144H484.227V90.54Z" fill="#C4F236"/>
<path d="M497.482 117.051V90.54H484.227V139.144H504.11C499.752 132.603 497.444 124.911 497.482 117.051V117.051Z" fill="#A1D51C"/>
<path d="M515.156 99.3771H546.086V130.307H515.156V99.3771Z" fill="#F89C8D"/>
<path d="M563.76 90.54H581.434V108.214H563.76V90.54Z" fill="#A1D51C"/>
<path d="M563.76 117.051H581.434V134.725H563.76V117.051Z" fill="#F8664F"/>
<path d="M563.76 143.562H581.434V161.236H563.76V143.562Z" fill="#FCBC04"/>
<path d="M523.993 121.47V108.214L537.249 114.842L523.993 121.47Z" fill="#AAE1F9"/>
<path d="M568.179 143.562H581.434V156.818H574.807C573.049 156.818 571.363 156.12 570.12 154.877C568.877 153.634 568.179 151.948 568.179 150.19V143.562Z" fill="#F9E109"/>
<path d="M568.179 117.051H581.434V130.307H574.807C573.049 130.307 571.363 129.608 570.12 128.366C568.877 127.123 568.179 125.437 568.179 123.679V117.051Z" fill="#F89C8D"/>
<path d="M568.179 90.54H581.434V103.796H574.807C573.049 103.796 571.363 103.097 570.12 101.854C568.877 100.611 568.179 98.9256 568.179 97.1678V90.54Z" fill="#C4F236"/>
<path d="M521.784 106.005V99.3771H515.156V130.307H546.086V123.679H539.458C534.771 123.679 530.275 121.817 526.961 118.502C523.646 115.188 521.784 110.692 521.784 106.005Z" fill="#F8664F"/>
<path d="M523.993 114.555V121.47L528.014 119.459C526.389 118.08 525.027 116.419 523.993 114.555V114.555Z" fill="#57B7EB"/>
<path d="M506.319 121.47C511.2 121.47 515.156 117.513 515.156 112.633C515.156 107.752 511.2 103.796 506.319 103.796C501.439 103.796 497.482 107.752 497.482 112.633C497.482 117.513 501.439 121.47 506.319 121.47Z" fill="#F9E109"/>
<path d="M499.692 121.47H512.947C514.705 121.47 516.391 122.168 517.634 123.411C518.877 124.654 519.575 126.34 519.575 128.097V139.144H493.064V128.097C493.064 126.34 493.762 124.654 495.005 123.411C496.248 122.168 497.934 121.47 499.692 121.47V121.47Z" fill="#F9E109"/>
<path d="M510.738 117.051C508.394 117.051 506.146 116.12 504.489 114.463C502.832 112.806 501.901 110.558 501.901 108.214C501.9 106.963 502.171 105.727 502.696 104.591C501.386 105.173 500.237 106.066 499.348 107.192C498.46 108.318 497.859 109.643 497.597 111.053C497.336 112.463 497.421 113.916 497.846 115.285C498.271 116.655 499.023 117.901 500.037 118.915C501.051 119.929 502.297 120.681 503.667 121.106C505.036 121.531 506.489 121.616 507.899 121.355C509.309 121.093 510.634 120.492 511.76 119.604C512.886 118.715 513.779 117.566 514.361 116.256C513.225 116.781 511.989 117.052 510.738 117.051V117.051Z" fill="#FCBC04"/>
<path d="M499.692 121.47C497.934 121.47 496.248 122.168 495.005 123.411C493.762 124.654 493.064 126.34 493.064 128.097V139.144H519.575V134.725H512.947C509.432 134.725 506.06 133.329 503.574 130.843C501.088 128.357 499.692 124.985 499.692 121.47V121.47Z" fill="#FCBC04"/>
<path d="M493.064 128.097V139.144H504.11C500.629 133.945 498.433 127.993 497.703 121.779C496.358 122.202 495.184 123.043 494.349 124.179C493.515 125.315 493.065 126.688 493.064 128.097V128.097Z" fill="#E59730"/>
<path d="M554.923 108.214C555.509 108.214 556.071 107.981 556.485 107.567C556.9 107.153 557.132 106.591 557.132 106.005V90.54C557.132 89.9541 556.9 89.3921 556.485 88.9778C556.071 88.5635 555.509 88.3307 554.923 88.3307H484.227C483.641 88.3307 483.079 88.5635 482.665 88.9778C482.25 89.3921 482.017 89.9541 482.017 90.54V139.144C482.017 139.73 482.25 140.292 482.665 140.706C483.079 141.12 483.641 141.353 484.227 141.353H554.923C555.509 141.353 556.071 141.12 556.485 140.706C556.9 140.292 557.132 139.73 557.132 139.144V114.842C557.132 114.256 556.9 113.694 556.485 113.28C556.071 112.865 555.509 112.633 554.923 112.633C554.337 112.633 553.775 112.865 553.361 113.28C552.947 113.694 552.714 114.256 552.714 114.842V136.935H521.784V128.097C521.779 126.099 521.097 124.161 519.849 122.601C518.602 121.04 516.862 119.948 514.913 119.503C516.223 117.881 517.047 115.921 517.29 113.851C517.533 111.78 517.185 109.682 516.286 107.801C515.387 105.92 513.974 104.331 512.211 103.219C510.447 102.107 508.404 101.517 506.319 101.517C504.234 101.517 502.192 102.107 500.428 103.219C498.664 104.331 497.251 105.92 496.352 107.801C495.453 109.682 495.105 111.78 495.348 113.851C495.591 115.921 496.415 117.881 497.725 119.503C495.777 119.948 494.037 121.04 492.789 122.601C491.541 124.161 490.859 126.099 490.855 128.097V136.935H486.436V92.7493H552.714V106.005C552.714 106.591 552.947 107.153 553.361 107.567C553.775 107.981 554.337 108.214 554.923 108.214ZM506.319 106.005C507.63 106.005 508.912 106.394 510.002 107.122C511.091 107.85 511.941 108.885 512.443 110.096C512.944 111.307 513.076 112.64 512.82 113.926C512.564 115.211 511.933 116.392 511.006 117.319C510.079 118.246 508.898 118.877 507.612 119.133C506.327 119.389 504.994 119.258 503.783 118.756C502.572 118.254 501.537 117.405 500.809 116.315C500.08 115.225 499.692 113.943 499.692 112.633C499.692 110.875 500.39 109.189 501.633 107.946C502.876 106.703 504.562 106.005 506.319 106.005ZM495.273 128.097C495.273 126.926 495.739 125.802 496.567 124.973C497.396 124.144 498.52 123.679 499.692 123.679H512.947C514.119 123.679 515.243 124.144 516.072 124.973C516.9 125.802 517.366 126.926 517.366 128.097V136.935H495.273V128.097Z" fill="#39519D"/>
<path d="M563.76 110.423H581.434C582.02 110.423 582.582 110.191 582.997 109.776C583.411 109.362 583.644 108.8 583.644 108.214V90.54C583.644 89.9541 583.411 89.3921 582.997 88.9778C582.582 88.5635 582.02 88.3307 581.434 88.3307H563.76C563.174 88.3307 562.612 88.5635 562.198 88.9778C561.784 89.3921 561.551 89.9541 561.551 90.54V108.214C561.551 108.8 561.784 109.362 562.198 109.776C562.612 110.191 563.174 110.423 563.76 110.423ZM565.969 92.7493H579.225V106.005H565.969V92.7493Z" fill="#39519D"/>
<path d="M590.271 97.1678H594.69C595.276 97.1678 595.838 96.935 596.252 96.5207C596.666 96.1064 596.899 95.5445 596.899 94.9585C596.899 94.3726 596.666 93.8107 596.252 93.3963C595.838 92.982 595.276 92.7493 594.69 92.7493H590.271C589.685 92.7493 589.124 92.982 588.709 93.3963C588.295 93.8107 588.062 94.3726 588.062 94.9585C588.062 95.5445 588.295 96.1064 588.709 96.5207C589.124 96.935 589.685 97.1678 590.271 97.1678Z" fill="#39519D"/>
<path d="M590.271 106.005H594.69C595.276 106.005 595.838 105.772 596.252 105.358C596.666 104.943 596.899 104.382 596.899 103.796C596.899 103.21 596.666 102.648 596.252 102.233C595.838 101.819 595.276 101.586 594.69 101.586H590.271C589.685 101.586 589.124 101.819 588.709 102.233C588.295 102.648 588.062 103.21 588.062 103.796C588.062 104.382 588.295 104.943 588.709 105.358C589.124 105.772 589.685 106.005 590.271 106.005Z" fill="#39519D"/>
<path d="M561.551 134.725C561.551 135.311 561.784 135.873 562.198 136.287C562.612 136.702 563.174 136.935 563.76 136.935H581.434C582.02 136.935 582.582 136.702 582.997 136.287C583.411 135.873 583.644 135.311 583.644 134.725C583.644 134.139 583.411 133.577 582.997 133.163C582.582 132.749 582.02 132.516 581.434 132.516H565.969V119.26H579.225V125.888C579.225 126.474 579.458 127.036 579.872 127.45C580.286 127.865 580.848 128.097 581.434 128.097C582.02 128.097 582.582 127.865 582.997 127.45C583.411 127.036 583.644 126.474 583.644 125.888V117.051C583.644 116.465 583.411 115.903 582.997 115.489C582.582 115.075 582.02 114.842 581.434 114.842H563.76C563.174 114.842 562.612 115.075 562.198 115.489C561.784 115.903 561.551 116.465 561.551 117.051V134.725Z" fill="#39519D"/>
<path d="M590.271 123.679H594.69C595.276 123.679 595.838 123.446 596.252 123.032C596.666 122.618 596.899 122.056 596.899 121.47C596.899 120.884 596.666 120.322 596.252 119.907C595.838 119.493 595.276 119.26 594.69 119.26H590.271C589.685 119.26 589.124 119.493 588.709 119.907C588.295 120.322 588.062 120.884 588.062 121.47C588.062 122.056 588.295 122.618 588.709 123.032C589.124 123.446 589.685 123.679 590.271 123.679Z" fill="#39519D"/>
<path d="M590.271 132.516H594.69C595.276 132.516 595.838 132.283 596.252 131.869C596.666 131.455 596.899 130.893 596.899 130.307C596.899 129.721 596.666 129.159 596.252 128.745C595.838 128.33 595.276 128.097 594.69 128.097H590.271C589.685 128.097 589.124 128.33 588.709 128.745C588.295 129.159 588.062 129.721 588.062 130.307C588.062 130.893 588.295 131.455 588.709 131.869C589.124 132.283 589.685 132.516 590.271 132.516Z" fill="#39519D"/>
<path d="M561.551 161.236C561.551 161.822 561.784 162.384 562.198 162.799C562.612 163.213 563.174 163.446 563.76 163.446H581.434C582.02 163.446 582.582 163.213 582.997 162.799C583.411 162.384 583.644 161.822 583.644 161.236V143.562C583.644 142.976 583.411 142.414 582.997 142C582.582 141.586 582.02 141.353 581.434 141.353H563.76C563.174 141.353 562.612 141.586 562.198 142C561.784 142.414 561.551 142.976 561.551 143.562V161.236ZM565.969 145.772H579.225V159.027H565.969V145.772Z" fill="#39519D"/>
<path d="M590.271 150.19H594.69C595.276 150.19 595.838 149.957 596.252 149.543C596.666 149.129 596.899 148.567 596.899 147.981C596.899 147.395 596.666 146.833 596.252 146.419C595.838 146.004 595.276 145.772 594.69 145.772H590.271C589.685 145.772 589.124 146.004 588.709 146.419C588.295 146.833 588.062 147.395 588.062 147.981C588.062 148.567 588.295 149.129 588.709 149.543C589.124 149.957 589.685 150.19 590.271 150.19Z" fill="#39519D"/>
<path d="M590.271 159.027H594.69C595.276 159.027 595.838 158.794 596.252 158.38C596.666 157.966 596.899 157.404 596.899 156.818C596.899 156.232 596.666 155.67 596.252 155.256C595.838 154.841 595.276 154.609 594.69 154.609H590.271C589.685 154.609 589.124 154.841 588.709 155.256C588.295 155.67 588.062 156.232 588.062 156.818C588.062 157.404 588.295 157.966 588.709 158.38C589.124 158.794 589.685 159.027 590.271 159.027Z" fill="#39519D"/>
<path d="M532.831 150.19C533.416 150.19 533.978 149.957 534.393 149.543C534.807 149.129 535.04 148.567 535.04 147.981C535.04 147.395 534.807 146.833 534.393 146.419C533.978 146.004 533.416 145.772 532.831 145.772H495.273C494.687 145.772 494.125 146.004 493.711 146.419C493.297 146.833 493.064 147.395 493.064 147.981C493.064 148.567 493.297 149.129 493.711 149.543C494.125 149.957 494.687 150.19 495.273 150.19H532.831Z" fill="#39519D"/>
<path d="M484.227 156.818C484.227 157.404 484.46 157.966 484.874 158.38C485.288 158.794 485.85 159.027 486.436 159.027H512.947C513.533 159.027 514.095 158.794 514.509 158.38C514.924 157.966 515.156 157.404 515.156 156.818C515.156 156.232 514.924 155.67 514.509 155.256C514.095 154.841 513.533 154.609 512.947 154.609H486.436C485.85 154.609 485.288 154.841 484.874 155.256C484.46 155.67 484.227 156.232 484.227 156.818Z" fill="#39519D"/>
<path d="M486.436 167.864H541.668C542.254 167.864 542.815 167.631 543.23 167.217C543.644 166.803 543.877 166.241 543.877 165.655C543.877 165.069 543.644 164.507 543.23 164.093C542.815 163.678 542.254 163.446 541.668 163.446H486.436C485.85 163.446 485.288 163.678 484.874 164.093C484.46 164.507 484.227 165.069 484.227 165.655C484.227 166.241 484.46 166.803 484.874 167.217C485.288 167.631 485.85 167.864 486.436 167.864Z" fill="#39519D"/>
<path d="M539.458 114.842C539.457 114.434 539.343 114.034 539.128 113.687C538.914 113.34 538.608 113.059 538.243 112.876L524.988 106.248C524.651 106.078 524.277 105.998 523.901 106.013C523.525 106.029 523.159 106.141 522.838 106.338C522.517 106.535 522.252 106.811 522.067 107.139C521.883 107.467 521.785 107.838 521.784 108.214V121.47C521.783 121.845 521.878 122.215 522.06 122.543C522.242 122.872 522.504 123.149 522.823 123.348C523.174 123.565 523.58 123.68 523.993 123.679C524.339 123.677 524.68 123.594 524.988 123.436L538.243 116.808C538.608 116.625 538.914 116.344 539.128 115.997C539.343 115.65 539.457 115.25 539.458 114.842ZM526.203 117.891V111.793L532.3 114.842L526.203 117.891Z" fill="#39519D"/>
<path d="M528.412 132.516H546.086C546.672 132.516 547.234 132.283 547.648 131.869C548.063 131.455 548.295 130.893 548.295 130.307V99.377C548.295 98.7911 548.063 98.2292 547.648 97.8149C547.234 97.4005 546.672 97.1678 546.086 97.1678H517.366C516.78 97.1678 516.218 97.4005 515.804 97.8149C515.389 98.2292 515.156 98.7911 515.156 99.377C515.156 99.963 515.389 100.525 515.804 100.939C516.218 101.354 516.78 101.586 517.366 101.586H543.877V128.097H528.412C527.826 128.097 527.264 128.33 526.85 128.745C526.436 129.159 526.203 129.721 526.203 130.307C526.203 130.893 526.436 131.455 526.85 131.869C527.264 132.283 527.826 132.516 528.412 132.516Z" fill="#39519D"/>
<path d="M603.527 154.609C602.941 154.609 602.379 154.841 601.965 155.256C601.55 155.67 601.318 156.232 601.318 156.818V170.073C601.318 170.659 601.085 171.221 600.671 171.636C600.256 172.05 599.694 172.283 599.108 172.283H479.808C479.222 172.283 478.66 172.05 478.246 171.636C477.832 171.221 477.599 170.659 477.599 170.073V112.633C477.599 112.047 477.366 111.485 476.952 111.07C476.538 110.656 475.976 110.423 475.39 110.423C474.804 110.423 474.242 110.656 473.827 111.07C473.413 111.485 473.18 112.047 473.18 112.633V170.073C473.18 171.831 473.879 173.517 475.122 174.76C476.365 176.003 478.05 176.701 479.808 176.701H520.414L513.787 189.957H499.692C499.106 189.957 498.544 190.19 498.129 190.604C497.715 191.018 497.482 191.58 497.482 192.166C497.482 192.752 497.715 193.314 498.129 193.728C498.544 194.143 499.106 194.375 499.692 194.375H579.225C579.811 194.375 580.373 194.608 580.787 195.022C581.202 195.437 581.434 195.999 581.434 196.585V198.794H495.273C494.687 198.794 494.125 199.027 493.711 199.441C493.297 199.855 493.064 200.417 493.064 201.003C493.064 201.589 493.297 202.151 493.711 202.565C494.125 202.98 494.687 203.212 495.273 203.212H583.644C584.23 203.212 584.791 202.98 585.206 202.565C585.62 202.151 585.853 201.589 585.853 201.003V196.585C585.853 194.827 585.155 193.141 583.912 191.898C582.669 190.655 580.983 189.957 579.225 189.957H565.13L558.502 176.701H599.108C600.866 176.701 602.552 176.003 603.795 174.76C605.038 173.517 605.736 171.831 605.736 170.073V156.818C605.736 156.232 605.503 155.67 605.089 155.256C604.675 154.841 604.113 154.609 603.527 154.609ZM560.181 189.957H518.735L525.363 176.701H553.553L560.181 189.957Z" fill="#39519D"/>
<path d="M599.108 79.4937H479.808C478.05 79.4937 476.365 80.192 475.122 81.4349C473.879 82.6779 473.18 84.3637 473.18 86.1215V103.796C473.18 104.382 473.413 104.943 473.827 105.358C474.242 105.772 474.804 106.005 475.39 106.005C475.976 106.005 476.538 105.772 476.952 105.358C477.366 104.943 477.599 104.382 477.599 103.796V86.1215C477.599 85.5355 477.832 84.9736 478.246 84.5593C478.66 84.145 479.222 83.9122 479.808 83.9122H599.108C599.694 83.9122 600.256 84.145 600.671 84.5593C601.085 84.9736 601.318 85.5355 601.318 86.1215V147.981C601.318 148.567 601.55 149.129 601.965 149.543C602.379 149.957 602.941 150.19 603.527 150.19C604.113 150.19 604.675 149.957 605.089 149.543C605.503 149.129 605.736 148.567 605.736 147.981V86.1215C605.736 84.3637 605.038 82.6779 603.795 81.4349C602.552 80.192 600.866 79.4937 599.108 79.4937V79.4937Z" fill="#39519D"/>
<path d="M119.778 172.163H10.1507C7.90824 172.163 6.09039 173.981 6.09039 176.224V253.369C6.09039 255.611 7.90824 257.429 10.1507 257.429H119.778C122.02 257.429 123.838 255.611 123.838 253.369V176.224C123.838 173.981 122.02 172.163 119.778 172.163Z" fill="#AAE1F9"/>
<path d="M26.3917 204.645V172.163H10.1507C9.07381 172.163 8.04107 172.591 7.27962 173.353C6.51817 174.114 6.09039 175.147 6.09039 176.224V253.369C6.09039 254.446 6.51817 255.478 7.27962 256.24C8.04107 257.001 9.07381 257.429 10.1507 257.429H119.778C120.855 257.429 121.887 257.001 122.649 256.24C123.41 255.478 123.838 254.446 123.838 253.369V241.188H62.9341C53.2425 241.188 43.9478 237.338 37.0948 230.485C30.2417 223.632 26.3917 214.337 26.3917 204.645V204.645Z" fill="#57B7EB"/>
<path d="M79.1752 257.429H50.7533L42.6328 273.67H87.2958L79.1752 257.429Z" fill="#FCBC04"/>
<path d="M28.4219 273.67H101.507C102.584 273.67 103.616 274.098 104.378 274.859C105.139 275.621 105.567 276.653 105.567 277.73V281.791H24.3616V277.73C24.3616 276.653 24.7894 275.621 25.5508 274.859C26.3123 274.098 27.345 273.67 28.4219 273.67Z" fill="#FCBC04"/>
<path d="M36.5424 273.67H101.507C102.584 273.67 103.616 274.098 104.378 274.859C105.139 275.621 105.567 276.653 105.567 277.73H40.6027C39.5258 277.73 38.4931 277.303 37.7316 276.541C36.9702 275.78 36.5424 274.747 36.5424 273.67Z" fill="#F9E109"/>
<path d="M79.1752 257.429H50.7533L42.6328 273.67L79.1752 257.429Z" fill="#E59730"/>
<path d="M24.3616 249.308C26.604 249.308 28.4219 247.491 28.4219 245.248C28.4219 243.006 26.604 241.188 24.3616 241.188C22.1192 241.188 20.3013 243.006 20.3013 245.248C20.3013 247.491 22.1192 249.308 24.3616 249.308Z" fill="#FCBC04"/>
<path d="M79.1753 218.856C81.4177 218.856 83.2355 217.039 83.2355 214.796C83.2355 212.554 81.4177 210.736 79.1753 210.736C76.9328 210.736 75.115 212.554 75.115 214.796C75.115 217.039 76.9328 218.856 79.1753 218.856Z" fill="#F9E109"/>
<path d="M42.6328 229.007C44.8752 229.007 46.6931 227.189 46.6931 224.947C46.6931 222.704 44.8752 220.887 42.6328 220.887C40.3904 220.887 38.5725 222.704 38.5725 224.947C38.5725 227.189 40.3904 229.007 42.6328 229.007Z" fill="#F9E109"/>
<path d="M60.904 245.248C63.1464 245.248 64.9643 243.43 64.9643 241.188C64.9643 238.945 63.1464 237.128 60.904 237.128C58.6616 237.128 56.8438 238.945 56.8438 241.188C56.8438 243.43 58.6616 245.248 60.904 245.248Z" fill="#F9E109"/>
<path d="M93.3862 233.067C95.6286 233.067 97.4465 231.249 97.4465 229.007C97.4465 226.765 95.6286 224.947 93.3862 224.947C91.1438 224.947 89.3259 226.765 89.3259 229.007C89.3259 231.249 91.1438 233.067 93.3862 233.067Z" fill="#F9E109"/>
<path d="M109.627 212.766C111.87 212.766 113.687 210.948 113.687 208.706C113.687 206.463 111.87 204.645 109.627 204.645C107.385 204.645 105.567 206.463 105.567 208.706C105.567 210.948 107.385 212.766 109.627 212.766Z" fill="#F9E109"/>
<path d="M28.4219 204.645C35.1492 204.645 40.6027 199.192 40.6027 192.465C40.6027 185.737 35.1492 180.284 28.4219 180.284C21.6946 180.284 16.2411 185.737 16.2411 192.465C16.2411 199.192 21.6946 204.645 28.4219 204.645Z" fill="#C4F236"/>
<path d="M26.3918 204.463V180.467C23.5687 180.961 21.0104 182.435 19.1669 184.63C17.3234 186.824 16.3128 189.599 16.3128 192.465C16.3128 195.331 17.3234 198.105 19.1669 200.3C21.0104 202.494 23.5687 203.968 26.3918 204.463Z" fill="#A1D51C"/>
<path d="M28.4219 180.284V192.465H40.6027C40.6027 189.234 39.3194 186.136 37.035 183.852C34.7507 181.567 31.6524 180.284 28.4219 180.284Z" fill="#F89C8D"/>
<path d="M89.3259 180.284H97.4465V188.404H89.3259V180.284Z" fill="#C4F236"/>
<path d="M97.4464 180.284H105.567V188.404H97.4464V180.284Z" fill="#A1D51C"/>
<path d="M105.567 180.284H113.687V188.404H105.567V180.284Z" fill="#7AB92D"/>
<path d="M56.8438 240.64C56.8338 240.822 56.8338 241.005 56.8438 241.188C56.8438 242.265 57.2715 243.297 58.033 244.059C58.7944 244.82 59.8272 245.248 60.904 245.248C61.9809 245.248 63.0136 244.82 63.7751 244.059C64.5365 243.297 64.9643 242.265 64.9643 241.188H62.9342C60.8919 241.185 58.8538 241.001 56.8438 240.64V240.64Z" fill="#FCBC04"/>
<path d="M123.838 239.158C123.3 239.158 122.783 239.372 122.403 239.752C122.022 240.133 121.808 240.649 121.808 241.188V253.369C121.808 253.907 121.594 254.423 121.213 254.804C120.833 255.185 120.316 255.399 119.778 255.399H10.1507C9.61225 255.399 9.09588 255.185 8.71515 254.804C8.33443 254.423 8.12054 253.907 8.12054 253.369V200.585C8.12054 200.047 7.90665 199.53 7.52593 199.15C7.1452 198.769 6.62883 198.555 6.09041 198.555C5.55198 198.555 5.03561 198.769 4.65488 199.15C4.27416 199.53 4.06027 200.047 4.06027 200.585V253.369C4.06027 254.984 4.70194 256.533 5.84411 257.675C6.98628 258.817 8.5354 259.459 10.1507 259.459H47.4645L41.3741 271.64H28.4219C27.8835 271.64 27.3671 271.854 26.9864 272.234C26.6056 272.615 26.3917 273.132 26.3917 273.67C26.3917 274.208 26.6056 274.725 26.9864 275.106C27.3671 275.486 27.8835 275.7 28.4219 275.7H101.507C102.045 275.7 102.562 275.914 102.942 276.295C103.323 276.675 103.537 277.192 103.537 277.73V279.76H24.3616C23.8232 279.76 23.3068 279.974 22.9261 280.355C22.5454 280.736 22.3315 281.252 22.3315 281.791C22.3315 282.329 22.5454 282.845 22.9261 283.226C23.3068 283.607 23.8232 283.821 24.3616 283.821H105.567C106.105 283.821 106.622 283.607 107.002 283.226C107.383 282.845 107.597 282.329 107.597 281.791V277.73C107.597 276.115 106.955 274.566 105.813 273.424C104.671 272.282 103.122 271.64 101.507 271.64H88.5544L82.464 259.459H119.778C121.393 259.459 122.942 258.817 124.084 257.675C125.227 256.533 125.868 254.984 125.868 253.369V241.188C125.868 240.649 125.654 240.133 125.274 239.752C124.893 239.372 124.377 239.158 123.838 239.158ZM84.0069 271.64H45.9216L52.012 259.459H77.9165L84.0069 271.64Z" fill="#39519D"/>
<path d="M119.778 170.133H10.1507C8.5354 170.133 6.98628 170.775 5.84411 171.917C4.70194 173.059 4.06027 174.608 4.06027 176.224V192.465C4.06027 193.003 4.27416 193.519 4.65488 193.9C5.03561 194.281 5.55198 194.495 6.09041 194.495C6.62883 194.495 7.1452 194.281 7.52593 193.9C7.90665 193.519 8.12054 193.003 8.12054 192.465V176.224C8.12054 175.685 8.33443 175.169 8.71515 174.788C9.09588 174.407 9.61225 174.193 10.1507 174.193H119.778C120.316 174.193 120.833 174.407 121.213 174.788C121.594 175.169 121.808 175.685 121.808 176.224V233.067C121.808 233.606 122.022 234.122 122.403 234.503C122.783 234.884 123.3 235.097 123.838 235.097C124.377 235.097 124.893 234.884 125.274 234.503C125.654 234.122 125.868 233.606 125.868 233.067V176.224C125.868 174.608 125.227 173.059 124.084 171.917C122.942 170.775 121.393 170.133 119.778 170.133V170.133Z" fill="#39519D"/>
<path d="M42.6328 218.856C41.0175 218.856 39.4684 219.498 38.3262 220.64C37.1841 221.782 36.5424 223.332 36.5424 224.947C36.5421 225.959 36.8081 226.953 37.3138 227.83L26.6962 239.625C25.9563 239.317 25.1629 239.158 24.3616 239.158C23.157 239.158 21.9795 239.515 20.9779 240.184C19.9764 240.853 19.1958 241.805 18.7348 242.917C18.2738 244.03 18.1532 245.255 18.3882 246.436C18.6232 247.618 19.2033 248.703 20.055 249.555C20.9068 250.406 21.992 250.987 23.1734 251.222C24.3548 251.457 25.5794 251.336 26.6923 250.875C27.8052 250.414 28.7563 249.633 29.4256 248.632C30.0948 247.63 30.452 246.453 30.452 245.248C30.4493 244.239 30.1909 243.247 29.7008 242.365L40.2981 230.57C41.0381 230.878 41.8314 231.037 42.6328 231.037C43.6559 231.025 44.6601 230.76 45.5562 230.266L55.2602 238.894C54.8842 239.819 54.7412 240.822 54.844 241.815C54.9468 242.808 55.2921 243.761 55.8496 244.589C56.4071 245.417 57.1597 246.095 58.0411 246.564C58.9225 247.033 59.9056 247.279 60.904 247.278C61.4424 247.278 61.9588 247.064 62.3395 246.684C62.7202 246.303 62.9341 245.787 62.9341 245.248C62.9341 244.71 62.7202 244.193 62.3395 243.813C61.9588 243.432 61.4424 243.218 60.904 243.218C60.5025 243.218 60.11 243.099 59.7761 242.876C59.4423 242.653 59.1821 242.336 59.0284 241.965C58.8747 241.594 58.8345 241.186 58.9129 240.792C58.9912 240.398 59.1846 240.036 59.4685 239.752C59.7524 239.468 60.1141 239.275 60.5079 239.197C60.9017 239.118 61.3099 239.159 61.6809 239.312C62.0519 239.466 62.3689 239.726 62.592 240.06C62.8151 240.394 62.9341 240.786 62.9341 241.188C62.9341 241.726 63.148 242.243 63.5287 242.623C63.9095 243.004 64.4258 243.218 64.9643 243.218C65.5027 243.218 66.0191 243.004 66.3998 242.623C66.7805 242.243 66.9944 241.726 66.9944 241.188C66.9904 239.912 66.5857 238.669 65.8372 237.635L77.5917 220.643C78.1059 220.796 78.6387 220.878 79.1752 220.887C80.0826 220.881 80.9774 220.673 81.7941 220.277L87.8845 226.368C87.4227 227.322 87.2179 228.38 87.2904 229.438C87.3629 230.495 87.7102 231.516 88.2979 232.398C88.8856 233.28 89.6934 233.994 90.6413 234.468C91.5893 234.942 92.6447 235.161 93.7031 235.102C94.7615 235.044 95.7863 234.71 96.6762 234.134C97.566 233.558 98.2901 232.759 98.7769 231.818C99.2636 230.876 99.4962 229.824 99.4516 228.765C99.4069 227.706 99.0866 226.677 98.5224 225.779L107.597 214.431C108.247 214.67 108.934 214.793 109.627 214.796C111.242 214.796 112.792 214.154 113.934 213.012C115.076 211.87 115.718 210.321 115.718 208.706C115.718 207.09 115.076 205.541 113.934 204.399C112.792 203.257 111.242 202.615 109.627 202.615C109.089 202.615 108.572 202.829 108.192 203.21C107.811 203.591 107.597 204.107 107.597 204.645C107.597 205.184 107.811 205.7 108.192 206.081C108.572 206.462 109.089 206.676 109.627 206.676C110.029 206.676 110.421 206.795 110.755 207.018C111.089 207.241 111.349 207.558 111.503 207.929C111.656 208.3 111.697 208.708 111.618 209.102C111.54 209.496 111.347 209.857 111.063 210.141C110.779 210.425 110.417 210.619 110.023 210.697C109.629 210.775 109.221 210.735 108.85 210.581C108.479 210.428 108.162 210.167 107.939 209.834C107.716 209.5 107.597 209.107 107.597 208.706C107.597 208.167 107.383 207.651 107.002 207.27C106.622 206.889 106.105 206.676 105.567 206.676C105.029 206.676 104.512 206.889 104.131 207.27C103.751 207.651 103.537 208.167 103.537 208.706C103.543 209.841 103.866 210.952 104.471 211.913L95.4163 223.282C94.766 223.043 94.079 222.919 93.3861 222.917C92.4787 222.922 91.5839 223.13 90.7673 223.526L84.6769 217.435C85.0682 216.611 85.2694 215.709 85.2655 214.797C85.2616 213.885 85.0528 212.985 84.6544 212.164C84.256 211.343 83.6783 210.622 82.9639 210.055C82.2496 209.487 81.4168 209.087 80.5271 208.885C79.6375 208.682 78.7137 208.682 77.824 208.884C76.9343 209.087 76.1015 209.487 75.3871 210.054C74.6726 210.622 74.0948 211.342 73.6963 212.163C73.2978 212.984 73.0888 213.884 73.0848 214.796C73.0888 216.072 73.4935 217.315 74.242 218.349L62.4875 235.341C61.9733 235.188 61.4405 235.106 60.904 235.097C59.8809 235.11 58.8767 235.375 57.9806 235.869L48.2766 227.241C48.6526 226.316 48.7956 225.313 48.6928 224.32C48.59 223.327 48.2446 222.374 47.6871 221.546C47.1296 220.718 46.3771 220.039 45.4957 219.57C44.6143 219.101 43.6312 218.856 42.6328 218.856V218.856ZM95.4163 229.007C95.4163 229.409 95.2972 229.801 95.0741 230.135C94.8511 230.469 94.534 230.729 94.163 230.883C93.7921 231.036 93.3839 231.077 92.9901 230.998C92.5963 230.92 92.2345 230.727 91.9506 230.443C91.6667 230.159 91.4733 229.797 91.395 229.403C91.3167 229.009 91.3569 228.601 91.5105 228.23C91.6642 227.859 91.9244 227.542 92.2583 227.319C92.5921 227.096 92.9846 226.977 93.3861 226.977C93.9246 226.977 94.4409 227.191 94.8217 227.572C95.2024 227.952 95.4163 228.469 95.4163 229.007ZM79.1752 212.766C79.5767 212.766 79.9692 212.885 80.3031 213.108C80.6369 213.331 80.8971 213.648 81.0508 214.019C81.2045 214.39 81.2447 214.798 81.1663 215.192C81.088 215.586 80.8946 215.948 80.6107 216.232C80.3268 216.516 79.9651 216.709 79.5713 216.787C79.1775 216.866 78.7693 216.825 78.3983 216.672C78.0273 216.518 77.7103 216.258 77.4872 215.924C77.2641 215.59 77.1451 215.198 77.1451 214.796C77.1451 214.258 77.359 213.741 77.7397 213.361C78.1204 212.98 78.6368 212.766 79.1752 212.766ZM24.3616 247.278C23.9601 247.278 23.5676 247.159 23.2337 246.936C22.8998 246.713 22.6396 246.396 22.486 246.025C22.3323 245.654 22.2921 245.246 22.3705 244.852C22.4488 244.458 22.6421 244.097 22.9261 243.813C23.21 243.529 23.5717 243.335 23.9655 243.257C24.3593 243.179 24.7675 243.219 25.1385 243.373C25.5094 243.526 25.8265 243.786 26.0496 244.12C26.2727 244.454 26.3917 244.847 26.3917 245.248C26.3917 245.787 26.1778 246.303 25.7971 246.684C25.4164 247.064 24.9 247.278 24.3616 247.278ZM40.6027 224.947C40.6027 224.545 40.7217 224.153 40.9448 223.819C41.1679 223.485 41.4849 223.225 41.8559 223.071C42.2269 222.918 42.635 222.877 43.0289 222.956C43.4227 223.034 43.7844 223.227 44.0683 223.511C44.3522 223.795 44.5456 224.157 44.6239 224.551C44.7022 224.945 44.662 225.353 44.5084 225.724C44.3547 226.095 44.0945 226.412 43.7607 226.635C43.4268 226.858 43.0343 226.977 42.6328 226.977C42.0944 226.977 41.578 226.763 41.1973 226.382C40.8165 226.002 40.6027 225.485 40.6027 224.947Z" fill="#39519D"/>
<path d="M28.4219 178.254C25.6112 178.254 22.8637 179.087 20.5267 180.649C18.1897 182.21 16.3683 184.43 15.2927 187.026C14.2171 189.623 13.9357 192.48 14.484 195.237C15.0323 197.994 16.3858 200.526 18.3732 202.513C20.3607 204.501 22.8928 205.854 25.6495 206.403C28.4061 206.951 31.2635 206.669 33.8602 205.594C36.4569 204.518 38.6763 202.697 40.2378 200.36C41.7994 198.023 42.6328 195.275 42.6328 192.465C42.6328 188.696 41.1356 185.081 38.4705 182.416C35.8055 179.751 32.1909 178.254 28.4219 178.254V178.254ZM38.3695 190.435H30.452V182.517C32.4028 182.915 34.1934 183.878 35.6012 185.285C37.009 186.693 37.9717 188.484 38.3695 190.435V190.435ZM28.4219 202.615C25.9046 202.618 23.4762 201.685 21.6081 199.998C19.7399 198.31 18.5654 195.989 18.3124 193.485C18.0594 190.98 18.7461 188.471 20.239 186.444C21.732 184.418 23.9248 183.018 26.3917 182.517V192.465C26.3917 193.003 26.6056 193.519 26.9864 193.9C27.3671 194.281 27.8835 194.495 28.4219 194.495H38.3695C37.9015 196.788 36.6557 198.848 34.843 200.328C33.0303 201.808 30.7619 202.616 28.4219 202.615V202.615Z" fill="#39519D"/>
<path d="M50.7533 192.465C51.8746 192.465 52.7835 191.556 52.7835 190.435C52.7835 189.313 51.8746 188.404 50.7533 188.404C49.6321 188.404 48.7232 189.313 48.7232 190.435C48.7232 191.556 49.6321 192.465 50.7533 192.465Z" fill="#39519D"/>
<path d="M58.8739 192.465C59.9951 192.465 60.904 191.556 60.904 190.435C60.904 189.313 59.9951 188.404 58.8739 188.404C57.7527 188.404 56.8438 189.313 56.8438 190.435C56.8438 191.556 57.7527 192.465 58.8739 192.465Z" fill="#39519D"/>
<path d="M66.9944 192.465C68.1156 192.465 69.0246 191.556 69.0246 190.435C69.0246 189.313 68.1156 188.404 66.9944 188.404C65.8732 188.404 64.9643 189.313 64.9643 190.435C64.9643 191.556 65.8732 192.465 66.9944 192.465Z" fill="#39519D"/>
<path d="M75.115 192.465C76.2362 192.465 77.1451 191.556 77.1451 190.435C77.1451 189.313 76.2362 188.404 75.115 188.404C73.9938 188.404 73.0848 189.313 73.0848 190.435C73.0848 191.556 73.9938 192.465 75.115 192.465Z" fill="#39519D"/>
<path d="M50.7533 200.585C51.8746 200.585 52.7835 199.676 52.7835 198.555C52.7835 197.434 51.8746 196.525 50.7533 196.525C49.6321 196.525 48.7232 197.434 48.7232 198.555C48.7232 199.676 49.6321 200.585 50.7533 200.585Z" fill="#39519D"/>
<path d="M58.8739 200.585C59.9951 200.585 60.904 199.676 60.904 198.555C60.904 197.434 59.9951 196.525 58.8739 196.525C57.7527 196.525 56.8438 197.434 56.8438 198.555C56.8438 199.676 57.7527 200.585 58.8739 200.585Z" fill="#39519D"/>
<path d="M66.9944 200.585C68.1156 200.585 69.0246 199.676 69.0246 198.555C69.0246 197.434 68.1156 196.525 66.9944 196.525C65.8732 196.525 64.9643 197.434 64.9643 198.555C64.9643 199.676 65.8732 200.585 66.9944 200.585Z" fill="#39519D"/>
<path d="M75.115 200.585C76.2362 200.585 77.1451 199.676 77.1451 198.555C77.1451 197.434 76.2362 196.525 75.115 196.525C73.9938 196.525 73.0848 197.434 73.0848 198.555C73.0848 199.676 73.9938 200.585 75.115 200.585Z" fill="#39519D"/>
<path d="M83.2355 200.585C84.3567 200.585 85.2656 199.676 85.2656 198.555C85.2656 197.434 84.3567 196.525 83.2355 196.525C82.1143 196.525 81.2054 197.434 81.2054 198.555C81.2054 199.676 82.1143 200.585 83.2355 200.585Z" fill="#39519D"/>
<path d="M91.3561 200.585C92.4773 200.585 93.3862 199.676 93.3862 198.555C93.3862 197.434 92.4773 196.525 91.3561 196.525C90.2348 196.525 89.3259 197.434 89.3259 198.555C89.3259 199.676 90.2348 200.585 91.3561 200.585Z" fill="#39519D"/>
<path d="M50.7533 184.344C51.8746 184.344 52.7835 183.435 52.7835 182.314C52.7835 181.193 51.8746 180.284 50.7533 180.284C49.6321 180.284 48.7232 181.193 48.7232 182.314C48.7232 183.435 49.6321 184.344 50.7533 184.344Z" fill="#39519D"/>
<path d="M58.8739 184.344C59.9951 184.344 60.904 183.435 60.904 182.314C60.904 181.193 59.9951 180.284 58.8739 180.284C57.7527 180.284 56.8438 181.193 56.8438 182.314C56.8438 183.435 57.7527 184.344 58.8739 184.344Z" fill="#39519D"/>
<path d="M117.748 241.188C117.748 240.649 117.534 240.133 117.153 239.752C116.772 239.372 116.256 239.158 115.718 239.158H105.567C105.029 239.158 104.512 239.372 104.131 239.752C103.751 240.133 103.537 240.649 103.537 241.188C103.537 241.726 103.751 242.243 104.131 242.623C104.512 243.004 105.029 243.218 105.567 243.218H115.718C116.256 243.218 116.772 243.004 117.153 242.623C117.534 242.243 117.748 241.726 117.748 241.188Z" fill="#39519D"/>
<path d="M95.4163 247.278C94.8779 247.278 94.3615 247.492 93.9808 247.873C93.6001 248.254 93.3862 248.77 93.3862 249.308C93.3862 249.847 93.6001 250.363 93.9808 250.744C94.3615 251.125 94.8779 251.339 95.4163 251.339H113.688C114.226 251.339 114.742 251.125 115.123 250.744C115.504 250.363 115.718 249.847 115.718 249.308C115.718 248.77 115.504 248.254 115.123 247.873C114.742 247.492 114.226 247.278 113.688 247.278H95.4163Z" fill="#39519D"/>
<path d="M113.688 178.254H89.3259C88.7875 178.254 88.2711 178.468 87.8904 178.848C87.5097 179.229 87.2958 179.745 87.2958 180.284V188.404C87.2958 188.943 87.5097 189.459 87.8904 189.84C88.2711 190.221 88.7875 190.435 89.3259 190.435H113.688C114.226 190.435 114.742 190.221 115.123 189.84C115.504 189.459 115.718 188.943 115.718 188.404V180.284C115.718 179.745 115.504 179.229 115.123 178.848C114.742 178.468 114.226 178.254 113.688 178.254ZM91.356 182.314H95.4163V186.374H91.356V182.314ZM99.4766 182.314H103.537V186.374H99.4766V182.314ZM111.657 186.374H107.597V182.314H111.657V186.374Z" fill="#39519D"/>
<path d="M50.7188 316.141H41.7188V322.234H52.2812V326H37.0312V303.25H52.25V307.047H41.7188V312.469H50.7188V316.141ZM63.4531 317.672H59.7188V326H55.0312V303.25H63.4844C66.1719 303.25 68.2448 303.849 69.7031 305.047C71.1615 306.245 71.8906 307.938 71.8906 310.125C71.8906 311.677 71.5521 312.974 70.875 314.016C70.2083 315.047 69.1927 315.87 67.8281 316.484L72.75 325.781V326H67.7188L63.4531 317.672ZM59.7188 313.875H63.5C64.6771 313.875 65.5885 313.578 66.2344 312.984C66.8802 312.38 67.2031 311.552 67.2031 310.5C67.2031 309.427 66.8958 308.583 66.2812 307.969C65.6771 307.354 64.7448 307.047 63.4844 307.047H59.7188V313.875ZM80.1562 317.984V326H75.4688V303.25H84.3438C86.0521 303.25 87.5521 303.562 88.8438 304.188C90.1458 304.812 91.1458 305.703 91.8438 306.859C92.5417 308.005 92.8906 309.312 92.8906 310.781C92.8906 313.01 92.125 314.771 90.5938 316.062C89.0729 317.344 86.9635 317.984 84.2656 317.984H80.1562ZM80.1562 314.188H84.3438C85.5833 314.188 86.526 313.896 87.1719 313.312C87.8281 312.729 88.1562 311.896 88.1562 310.812C88.1562 309.698 87.8281 308.797 87.1719 308.109C86.5156 307.422 85.6094 307.068 84.4531 307.047H80.1562V314.188Z" fill="#0372D9"/>
<path d="M512.719 57.2344H522.672V61H508.031V38.25H512.719V57.2344ZM531.5 38.25L537.344 54.75L543.156 38.25H549.312V61H544.609V54.7812L545.078 44.0469L538.938 61H535.719L529.594 44.0625L530.062 54.7812V61H525.375V38.25H531.5ZM565.203 55.0312C565.203 54.1458 564.891 53.4688 564.266 53C563.641 52.5208 562.516 52.0208 560.891 51.5C559.266 50.9688 557.979 50.4479 557.031 49.9375C554.448 48.5417 553.156 46.6615 553.156 44.2969C553.156 43.0677 553.5 41.974 554.188 41.0156C554.885 40.0469 555.88 39.2917 557.172 38.75C558.474 38.2083 559.932 37.9375 561.547 37.9375C563.172 37.9375 564.62 38.2344 565.891 38.8281C567.161 39.4115 568.146 40.2396 568.844 41.3125C569.552 42.3854 569.906 43.6042 569.906 44.9688H565.219C565.219 43.9271 564.891 43.1198 564.234 42.5469C563.578 41.9635 562.656 41.6719 561.469 41.6719C560.323 41.6719 559.432 41.9167 558.797 42.4062C558.161 42.8854 557.844 43.5208 557.844 44.3125C557.844 45.0521 558.214 45.6719 558.953 46.1719C559.703 46.6719 560.802 47.1406 562.25 47.5781C564.917 48.3802 566.859 49.375 568.078 50.5625C569.297 51.75 569.906 53.2292 569.906 55C569.906 56.9688 569.161 58.5156 567.672 59.6406C566.182 60.7552 564.177 61.3125 561.656 61.3125C559.906 61.3125 558.312 60.9948 556.875 60.3594C555.438 59.7135 554.339 58.8333 553.578 57.7188C552.828 56.6042 552.453 55.3125 552.453 53.8438H557.156C557.156 56.3542 558.656 57.6094 561.656 57.6094C562.771 57.6094 563.641 57.3854 564.266 56.9375C564.891 56.4792 565.203 55.8438 565.203 55.0312Z" fill="#0372D9"/>
<path d="M434.031 580.125C433.188 581.135 431.995 581.922 430.453 582.484C428.911 583.036 427.203 583.312 425.328 583.312C423.359 583.312 421.63 582.885 420.141 582.031C418.661 581.167 417.516 579.917 416.703 578.281C415.901 576.646 415.49 574.724 415.469 572.516V570.969C415.469 568.698 415.849 566.734 416.609 565.078C417.38 563.411 418.484 562.141 419.922 561.266C421.37 560.38 423.062 559.938 425 559.938C427.698 559.938 429.807 560.583 431.328 561.875C432.849 563.156 433.75 565.026 434.031 567.484H429.469C429.26 566.182 428.797 565.229 428.078 564.625C427.37 564.021 426.391 563.719 425.141 563.719C423.547 563.719 422.333 564.318 421.5 565.516C420.667 566.714 420.245 568.495 420.234 570.859V572.312C420.234 574.698 420.688 576.5 421.594 577.719C422.5 578.938 423.828 579.547 425.578 579.547C427.339 579.547 428.594 579.172 429.344 578.422V574.5H425.078V571.047H434.031V580.125ZM447.047 570.328C446.432 570.245 445.891 570.203 445.422 570.203C443.714 570.203 442.594 570.781 442.062 571.938V583H437.547V566.094H441.812L441.938 568.109C442.844 566.557 444.099 565.781 445.703 565.781C446.203 565.781 446.672 565.849 447.109 565.984L447.047 570.328ZM447.969 574.391C447.969 572.714 448.292 571.219 448.938 569.906C449.583 568.594 450.51 567.578 451.719 566.859C452.938 566.141 454.349 565.781 455.953 565.781C458.234 565.781 460.094 566.479 461.531 567.875C462.979 569.271 463.786 571.167 463.953 573.562L463.984 574.719C463.984 577.312 463.26 579.396 461.812 580.969C460.365 582.531 458.422 583.312 455.984 583.312C453.547 583.312 451.599 582.531 450.141 580.969C448.693 579.406 447.969 577.281 447.969 574.594V574.391ZM452.484 574.719C452.484 576.323 452.786 577.552 453.391 578.406C453.995 579.25 454.859 579.672 455.984 579.672C457.078 579.672 457.932 579.255 458.547 578.422C459.161 577.578 459.469 576.234 459.469 574.391C459.469 572.818 459.161 571.599 458.547 570.734C457.932 569.87 457.068 569.438 455.953 569.438C454.849 569.438 453.995 569.87 453.391 570.734C452.786 571.589 452.484 572.917 452.484 574.719ZM481.469 576.859L483.688 566.094H488.047L483.734 583H479.953L476.75 572.359L473.547 583H469.781L465.469 566.094H469.828L472.031 576.844L475.125 566.094H478.391L481.469 576.859ZM495.703 561.938V566.094H498.594V569.406H495.703V577.844C495.703 578.469 495.823 578.917 496.062 579.188C496.302 579.458 496.76 579.594 497.438 579.594C497.938 579.594 498.38 579.557 498.766 579.484V582.906C497.88 583.177 496.969 583.312 496.031 583.312C492.865 583.312 491.25 581.714 491.188 578.516V569.406H488.719V566.094H491.188V561.938H495.703ZM505.516 567.938C506.714 566.5 508.219 565.781 510.031 565.781C513.698 565.781 515.557 567.911 515.609 572.172V583H511.094V572.297C511.094 571.328 510.885 570.615 510.469 570.156C510.052 569.688 509.359 569.453 508.391 569.453C507.068 569.453 506.109 569.964 505.516 570.984V583H501V559H505.516V567.938ZM543.469 564.047H536.5V583H531.812V564.047H524.938V560.25H543.469V564.047ZM541.906 574.391C541.906 572.714 542.229 571.219 542.875 569.906C543.521 568.594 544.448 567.578 545.656 566.859C546.875 566.141 548.286 565.781 549.891 565.781C552.172 565.781 554.031 566.479 555.469 567.875C556.917 569.271 557.724 571.167 557.891 573.562L557.922 574.719C557.922 577.312 557.198 579.396 555.75 580.969C554.302 582.531 552.359 583.312 549.922 583.312C547.484 583.312 545.536 582.531 544.078 580.969C542.63 579.406 541.906 577.281 541.906 574.594V574.391ZM546.422 574.719C546.422 576.323 546.724 577.552 547.328 578.406C547.932 579.25 548.797 579.672 549.922 579.672C551.016 579.672 551.87 579.255 552.484 578.422C553.099 577.578 553.406 576.234 553.406 574.391C553.406 572.818 553.099 571.599 552.484 570.734C551.87 569.87 551.005 569.438 549.891 569.438C548.786 569.438 547.932 569.87 547.328 570.734C546.724 571.589 546.422 572.917 546.422 574.719ZM560 574.391C560 572.714 560.323 571.219 560.969 569.906C561.615 568.594 562.542 567.578 563.75 566.859C564.969 566.141 566.38 565.781 567.984 565.781C570.266 565.781 572.125 566.479 573.562 567.875C575.01 569.271 575.818 571.167 575.984 573.562L576.016 574.719C576.016 577.312 575.292 579.396 573.844 580.969C572.396 582.531 570.453 583.312 568.016 583.312C565.578 583.312 563.63 582.531 562.172 580.969C560.724 579.406 560 577.281 560 574.594V574.391ZM564.516 574.719C564.516 576.323 564.818 577.552 565.422 578.406C566.026 579.25 566.891 579.672 568.016 579.672C569.109 579.672 569.964 579.255 570.578 578.422C571.193 577.578 571.5 576.234 571.5 574.391C571.5 572.818 571.193 571.599 570.578 570.734C569.964 569.87 569.099 569.438 567.984 569.438C566.88 569.438 566.026 569.87 565.422 570.734C564.818 571.589 564.516 572.917 564.516 574.719ZM583.562 583H579.031V559H583.562V583ZM596.453 578.328C596.453 577.776 596.177 577.344 595.625 577.031C595.083 576.708 594.208 576.422 593 576.172C588.979 575.328 586.969 573.62 586.969 571.047C586.969 569.547 587.589 568.297 588.828 567.297C590.078 566.286 591.708 565.781 593.719 565.781C595.865 565.781 597.578 566.286 598.859 567.297C600.151 568.307 600.797 569.62 600.797 571.234H596.281C596.281 570.589 596.073 570.057 595.656 569.641C595.24 569.214 594.589 569 593.703 569C592.943 569 592.354 569.172 591.938 569.516C591.521 569.859 591.312 570.297 591.312 570.828C591.312 571.328 591.547 571.734 592.016 572.047C592.495 572.349 593.297 572.615 594.422 572.844C595.547 573.062 596.495 573.312 597.266 573.594C599.651 574.469 600.844 575.984 600.844 578.141C600.844 579.682 600.182 580.932 598.859 581.891C597.536 582.839 595.828 583.312 593.734 583.312C592.318 583.312 591.057 583.062 589.953 582.562C588.859 582.052 588 581.359 587.375 580.484C586.75 579.599 586.438 578.646 586.438 577.625H590.719C590.76 578.427 591.057 579.042 591.609 579.469C592.161 579.896 592.901 580.109 593.828 580.109C594.693 580.109 595.344 579.948 595.781 579.625C596.229 579.292 596.453 578.859 596.453 578.328Z" fill="#0372D9"/>
<path d="M329.875 256.312H321.656L320.094 261H315.109L323.578 238.25H327.922L336.438 261H331.453L329.875 256.312ZM322.922 252.516H328.609L325.75 244L322.922 252.516ZM343.031 261H338.5V237H343.031V261ZM351.531 261H347V237H351.531V261Z" fill="#0372D9"/>
<path d="M325.719 317.141C325.719 319.38 325.323 321.344 324.531 323.031C323.74 324.719 322.604 326.021 321.125 326.938C319.656 327.854 317.969 328.312 316.062 328.312C314.177 328.312 312.495 327.859 311.016 326.953C309.536 326.047 308.391 324.755 307.578 323.078C306.766 321.391 306.354 319.453 306.344 317.266V316.141C306.344 313.901 306.745 311.932 307.547 310.234C308.359 308.526 309.5 307.219 310.969 306.312C312.448 305.396 314.135 304.938 316.031 304.938C317.927 304.938 319.609 305.396 321.078 306.312C322.557 307.219 323.698 308.526 324.5 310.234C325.312 311.932 325.719 313.896 325.719 316.125V317.141ZM320.969 316.109C320.969 313.724 320.542 311.911 319.688 310.672C318.833 309.432 317.615 308.812 316.031 308.812C314.458 308.812 313.245 309.427 312.391 310.656C311.536 311.875 311.104 313.667 311.094 316.031V317.141C311.094 319.464 311.521 321.266 312.375 322.547C313.229 323.828 314.458 324.469 316.062 324.469C317.635 324.469 318.844 323.854 319.688 322.625C320.531 321.385 320.958 319.583 320.969 317.219V316.109ZM332.984 311.094L333.125 313.047C334.333 311.536 335.953 310.781 337.984 310.781C339.776 310.781 341.109 311.307 341.984 312.359C342.859 313.411 343.307 314.984 343.328 317.078V328H338.812V317.188C338.812 316.229 338.604 315.536 338.188 315.109C337.771 314.672 337.078 314.453 336.109 314.453C334.839 314.453 333.885 314.995 333.25 316.078V328H328.734V311.094H332.984ZM354.547 328.312C352.068 328.312 350.047 327.552 348.484 326.031C346.932 324.51 346.156 322.484 346.156 319.953V319.516C346.156 317.818 346.484 316.302 347.141 314.969C347.797 313.625 348.724 312.594 349.922 311.875C351.13 311.146 352.505 310.781 354.047 310.781C356.359 310.781 358.177 311.51 359.5 312.969C360.833 314.427 361.5 316.495 361.5 319.172V321.016H350.734C350.88 322.12 351.318 323.005 352.047 323.672C352.786 324.339 353.719 324.672 354.844 324.672C356.583 324.672 357.943 324.042 358.922 322.781L361.141 325.266C360.464 326.224 359.547 326.974 358.391 327.516C357.234 328.047 355.953 328.312 354.547 328.312ZM354.031 314.438C353.135 314.438 352.406 314.74 351.844 315.344C351.292 315.948 350.938 316.812 350.781 317.938H357.062V317.578C357.042 316.578 356.771 315.807 356.25 315.266C355.729 314.714 354.99 314.438 354.031 314.438Z" fill="#0372D9"/>
<path d="M326.662 294H324.133V279.207H326.662V294ZM323.928 275.283C323.928 274.873 324.051 274.527 324.297 274.244C324.552 273.962 324.926 273.82 325.418 273.82C325.91 273.82 326.284 273.962 326.539 274.244C326.794 274.527 326.922 274.873 326.922 275.283C326.922 275.693 326.794 276.035 326.539 276.309C326.284 276.582 325.91 276.719 325.418 276.719C324.926 276.719 324.552 276.582 324.297 276.309C324.051 276.035 323.928 275.693 323.928 275.283ZM333.115 279.207L333.197 281.066C334.327 279.645 335.804 278.934 337.627 278.934C340.753 278.934 342.33 280.697 342.357 284.225V294H339.828V284.211C339.819 283.145 339.573 282.356 339.09 281.846C338.616 281.335 337.873 281.08 336.861 281.08C336.041 281.08 335.321 281.299 334.701 281.736C334.081 282.174 333.598 282.748 333.252 283.459V294H330.723V279.207H333.115Z" fill="#1D82DD"/>
<defs>
<linearGradient id="paint0_linear" x1="34273.9" y1="20360" x2="19103" y2="38132.1" gradientUnits="userSpaceOnUse">
<stop stop-opacity="0"/>
<stop offset="0.99"/>
</linearGradient>
</defs>
</svg>
